<svg width="180" height="237" fill="none" xmlns="http://www.w3.org/2000/svg"><path d="M60.073 169.008c7.398 0 13.396-6.048 13.396-13.509 0-3.479-.755-2.735-2.567-.949-2.074 2.043-5.533 5.452-10.83 5.452-5.296 0-8.755-3.409-10.829-5.452-1.811-1.786-2.566-2.53-2.566.949 0 7.461 5.997 13.509 13.396 13.509zM119.927 169.008c-7.398 0-13.396-6.048-13.396-13.509 0-3.479.755-2.735 2.567-.949 2.074 2.043 5.533 5.452 10.829 5.452 5.297 0 8.756-3.409 10.83-5.452 1.811-1.786 2.566-2.53 2.566.949 0 7.461-5.997 13.509-13.396 13.509z" fill="#4b52b4"/><path fill-rule="evenodd" clip-rule="evenodd" d="M78.049 114.854S42.211 73.482 26.831 80.888c-12.727 6.127-5.906 57.797-5.906 57.797 0 21.454-7.158 31.742-20.925 46.815l18 11-7.5 21.5c22 3 33.001 5.514 48.376 12.416C68.374 234.681 78.912 237 90 237s21.626-2.319 31.124-6.584C136.499 223.514 147.5 221 169.5 218l-7.5-21.5 18-11c-13.767-15.073-20.925-25.361-20.925-46.815 0 0 6.821-51.67-5.906-57.797-15.38-7.406-51.218 33.966-51.218 33.966A75.802 75.802 0 0090 113.908c-4 0-8 .315-11.951.946zM90 177.955c-5.324.062-9.585 1.618-9.585 6.318 0 4.053 3.168 7.457 7.453 8.419-.02.125-.03.254-.03.385v12.994-.004l-.003.012c-.01.049-.052.243-.218.595-.208.439-.551.997-1.051 1.614-.998 1.233-2.53 2.588-4.571 3.645-3.997 2.069-10.142 3.086-18.419-.624a2.5 2.5 0 10-2.045 4.563c9.584 4.295 17.332 3.312 22.762.502 2.401-1.243 4.313-2.825 5.707-4.405 1.394 1.58 3.306 3.162 5.707 4.405 5.43 2.81 13.177 3.793 22.762-.502a2.5 2.5 0 00-2.045-4.563c-8.277 3.71-14.422 2.693-18.419.624-2.042-1.057-3.573-2.412-4.57-3.645-.5-.617-.844-1.175-1.052-1.614a2.712 2.712 0 01-.218-.595l-.002-.009v-.003l-.001.002v.002-12.994c0-.131-.01-.26-.03-.385 4.285-.962 7.453-4.366 7.453-8.419 0-4.7-4.261-6.256-9.585-6.318zm-32.777-60.414l-17.696-16.103-1.044 23.735-6.69-12.264-5.403 19.472c-1.358-9.993-4.909-41.452 3.418-46.49 8.124-4.916 31.548 19.349 39.773 28.306l-15.5-9.027 3.142 12.371zm19.223 38.01c0 9.119-7.33 16.511-16.373 16.511-9.043 0-16.373-7.392-16.373-16.511s7.33-16.511 16.373-16.511c9.042 0 16.373 7.392 16.373 16.511zm46.331-38.01l17.696-16.103 1.044 23.735 6.691-12.264 5.402 19.472c1.358-9.993 4.909-41.452-3.418-46.49-8.124-4.916-31.548 19.349-39.772 28.306l15.499-9.027-3.142 12.371zm-19.223 38.01c0 9.119 7.331 16.511 16.373 16.511 9.043 0 16.373-7.392 16.373-16.511s-7.33-16.511-16.373-16.511c-9.042 0-16.373 7.392-16.373 16.511zM86.265 10.165c-1.535 2.115-2.192 5.177-.865 8.843l-6.297 2.218c-2.016-5.568-1.168-10.915 1.726-14.902C83.693 2.38 88.399 0 93.619 0c5.064 0 9.369 1.848 12.304 5.617 2.831 3.636 4.077 8.66 4.077 14.5 0 8.37-4.971 13.608-8.932 17.76-4.207 4.409-7.115 7.508-7.115 12.25h-6.687c0-7.446 4.676-12.326 8.422-16.237.173-.18.343-.357.51-.533 4.063-4.258 7.116-7.759 7.116-13.24 0-5.043-1.095-8.429-2.694-10.482-1.494-1.92-3.709-3.04-7.002-3.04-3.138 0-5.787 1.413-7.353 3.57z" fill="#4b52b4"/><path d="M87.333 56.064H94V62h-6.667v-5.936z" fill="#4b52b4"/><path fill-rule="evenodd" clip-rule="evenodd" d="M136.304 22.677c-2.274 1.288-4.142 3.801-4.455 7.688l-6.649-.593c.475-5.903 3.464-10.417 7.751-12.844 4.242-2.401 9.511-2.615 14.261-.45 4.608 2.1 7.759 5.568 8.866 10.215 1.068 4.482.118 9.57-2.304 14.885-3.472 7.615-10.168 10.32-15.494 12.455-5.657 2.267-9.588 3.88-11.556 8.196l-6.084-2.773c3.089-6.776 9.367-9.278 14.399-11.282l.685-.274c5.462-2.189 9.692-4.108 11.966-9.096 2.091-4.589 2.5-8.123 1.897-10.654-.564-2.367-2.115-4.305-5.111-5.67-2.855-1.302-5.852-1.116-8.172.197z" fill="#4b52b4"/><path d="M118.239 64.885l6.066 2.765-2.462 5.402-6.066-2.765 2.462-5.402z" fill="#4b52b4"/><path fill-rule="evenodd" clip-rule="evenodd" d="M34.736 28.822c-.52 2.561.152 5.62 2.88 8.406l-4.81 4.63c-4.143-4.23-5.59-9.448-4.61-14.276.971-4.777 4.266-8.894 9.016-11.059 4.61-2.1 9.292-2.204 13.526.01 4.084 2.133 7.301 6.189 9.723 11.502 3.471 7.617 1.12 14.445-.763 19.866-2 5.756-3.361 9.782-1.394 14.098l-6.085 2.773c-3.088-6.777-.857-13.156.93-18.269l.244-.697c1.93-5.558 3.257-10.01.984-14.998-2.092-4.589-4.491-7.216-6.798-8.42-2.156-1.128-4.635-1.229-7.632.137-2.855 1.301-4.68 3.686-5.21 6.297z" fill="#4b52b4"/><path d="M54.742 70.145l6.067-2.764 2.461 5.401-6.066 2.765-2.462-5.402z" fill="#4b52b4"/></svg>